# xmcd
#
# Track frame offsets:
#	150
#	17388
#	29151
#	46666
#	61667
#	77622
#	95987
#	112977
#	130941
#	145146
#	157824
#
# Disc length: 2329 seconds
#
# Revision: 6029429
# Processed by: cddbd v1.5.2PL0 Copyright (c) Steve Scherf et al.
# Submitted via: EZCDAudioConverter 8.5.0.1
#
DISCID=8209170b
DTITLE=Tracy Lawrence - For The Love
DYEAR=2007
DGENRE=Country
TTITLE0=Tracy Lawrence - Find Out Who Your Friends Are
TTITLE1=Tracy Lawrence - Just Like Her
TTITLE2=Tracy Lawrence - You Can't Hide Redneck
TTITLE3=Tracy Lawrence Feat. Brad Arnold - For The Love
TTITLE4=Tracy Lawrence - As Easy As Our Blessings
TTITLE5=Tracy Lawrence - Speed Of Flight
TTITLE6=Tracy Lawrence - Rock And A Soft Place
TTITLE7=Tracy Lawrence - Til I Was A Daddy Too
TTITLE8=Tracy Lawrence - You're Why God Made Me
TTITLE9=Tracy Lawrence - Just Like That
TTITLE10=Tracy Lawrence Feat. Tim McGraw and Kenny Chesney - Find Out Who Your F
TTITLE10=riends Are [Alternate Version]
EXTD=
EXTT0=
EXTT1=
EXTT2=
EXTT3=
EXTT4=
EXTT5=
EXTT6=
EXTT7=
EXTT8=
EXTT9=
EXTT10=
PLAYORDER=
